<?xml version="1.0" standalone="no"?>
<!DOCTYPE svg PUBLIC "-//W3C//DTD SVG 20010904//EN"
 "http://www.w3.org/TR/2001/REC-SVG-20010904/DTD/svg10.dtd">
<svg version="1.0" xmlns="http://www.w3.org/2000/svg"
 width="300.000000pt" height="300.000000pt" viewBox="0 0 300.000000 300.000000"
 preserveAspectRatio="xMidYMid meet">
<metadata>
Created by potrace 1.14, written by Peter Selinger 2001-2017
</metadata>
<g transform="translate(0.000000,300.000000) scale(0.100000,-0.100000)"
fill="#000000" stroke="none">
<path d="M1406 2882 c-3 -5 -20 -9 -38 -10 -17 0 -62 -8 -100 -17 -82 -21
-114 -49 -124 -111 -7 -52 0 -147 15 -187 10 -25 8 -29 -14 -37 -14 -5 -146
-9 -303 -7 l-277 2 -50 -50 c-72 -73 -171 -186 -184 -212 -10 -20 -7 -22 37
-32 60 -13 107 -20 191 -27 36 -2 86 -7 111 -9 49 -5 150 -12 275 -20 150 -9
230 -17 237 -23 6 -7 15 -52 24 -127 2 -22 6 -53 8 -70 2 -16 7 -68 11 -115 4
-47 9 -97 10 -113 3 -19 0 -25 -8 -21 -7 4 -73 46 -147 93 -533 338 -737 381
-873 184 -29 -42 -71 -151 -83 -216 -4 -23 -9 -45 -10 -49 -1 -5 -2 -22 -3
-39 0 -16 -5 -28 -9 -25 -5 3 -9 -1 -9 -9 0 -8 3 -12 7 -10 4 2 7 -2 7 -10 0
-8 -4 -12 -8 -9 -4 2 -8 -41 -7 -96 0 -61 4 -100 10 -100 6 0 4 -8 -3 -17 -8
-9 -9 -14 -3 -10 7 4 11 -4 12 -21 1 -26 21 -131 40 -217 13 -58 57 -183 87
-248 109 -239 267 -372 428 -361 56 4 102 35 352 234 190 151 190 151 128 144
-170 -19 -194 -11 -222 79 -24 78 -36 166 -46 335 -6 110 -11 107 124 63 127
-42 173 -65 215 -108 61 -62 79 -107 78 -190 0 -47 3 -73 11 -75 7 -3 98 -4
202 -4 l190 1 1 76 c2 90 21 134 86 196 44 42 93 66 227 109 76 25 127 31 116
15 -3 -5 -8 -47 -10 -93 -15 -230 -36 -342 -74 -389 -19 -23 -63 -27 -183 -17
-27 2 -48 1 -48 -2 0 -4 39 -39 88 -77 48 -39 98 -81 112 -92 14 -11 30 -24
35 -28 6 -5 37 -29 70 -54 159 -122 204 -139 305 -112 109 28 204 113 294 266
25 42 44 77 41 77 -2 0 7 24 20 53 24 53 71 205 80 261 3 17 8 38 10 46 10 37
17 77 16 102 -1 15 3 29 9 33 5 3 10 12 10 18 0 7 -4 6 -11 -3 -9 -12 -9 -11
-3 5 10 24 12 205 2 199 -4 -3 -6 4 -6 13 1 22 -13 126 -18 134 -2 3 -6 20 -9
37 -17 97 -65 192 -121 242 -54 47 -96 61 -172 59 -132 -4 -323 -92 -658 -306
-72 -45 -136 -83 -141 -83 -6 0 -9 12 -7 28 2 15 6 60 9 101 2 40 8 94 11 120
4 25 8 57 9 71 6 60 18 121 25 125 6 4 43 7 240 20 148 10 331 24 390 30 118
12 138 15 182 26 44 10 47 12 37 32 -14 27 -116 144 -184 212 l-50 50 -285 -2
c-278 -2 -330 3 -313 30 13 21 16 49 17 142 1 70 -3 96 -16 115 -22 32 -113
66 -188 69 -30 2 -59 6 -65 9 -15 10 -29 9 -43 -2 -10 -7 -16 -5 -23 5 -7 11
-9 11 -9 0 0 -11 -3 -11 -15 -1 -8 7 -15 8 -15 3 0 -11 -29 -11 -47 0 -6 4
-14 3 -17 -1z"/>
<path d="M1317 937 c-25 -9 -125 -135 -227 -287 -8 -12 -27 -39 -41 -59 -160
-227 -200 -293 -189 -306 27 -33 138 -52 177 -31 24 12 133 95 153 116 3 3 20
19 39 35 l33 30 -6 -50 c-3 -27 -8 -70 -11 -95 -3 -25 -7 -62 -10 -82 -2 -21
1 -41 8 -47 10 -8 74 -17 175 -25 9 0 20 -5 24 -11 5 -6 8 -5 8 4 0 11 3 11
17 0 14 -12 16 -12 8 0 -6 10 -4 12 4 7 16 -10 62 -15 56 -7 -2 4 17 7 43 8
50 0 115 8 155 18 21 6 24 11 21 43 -4 55 -14 141 -20 191 -6 50 -9 52 75 -27
70 -65 159 -122 192 -122 32 0 107 27 128 45 11 11 -3 37 -85 157 -109 160
-265 380 -274 388 -3 3 -13 14 -21 26 -8 11 -26 35 -42 53 l-27 33 -170 1
c-94 1 -180 -2 -193 -6z"/>
</g>
</svg>
